<?xml version="1.0" standalone="no"?>
<!DOCTYPE svg PUBLIC "-//W3C//DTD SVG 1.1//EN" "http://www.w3.org/Graphics/SVG/1.1/DTD/svg11.dtd" >
<svg xmlns="http://www.w3.org/2000/svg">
<metadata>Generated by IcoMoon</metadata>
<defs>
<font id="filerobot-image-editor-font" horiz-adv-x="1024">
<font-face units-per-em="1024" ascent="960" descent="-64" />
<missing-glyph horiz-adv-x="1024" />
<glyph unicode="&#x20;" horiz-adv-x="512" d="" />
<glyph unicode="&#xe900;" glyph-name="effects" d="M245.76 72.533l-51.2 51.2c-6.827 6.827-6.827 20.48 0 27.307l317.44 317.44c6.827 6.827 20.48 6.827 27.307 0l51.2-51.2c6.827-6.827 6.827-20.48 0-27.307l-317.44-317.44c-6.827-10.24-20.48-10.24-27.307 0zM607.573 437.76l-47.787 47.787c-10.24 10.24-10.24 23.893 0 30.72l122.88 122.88c10.24 10.24 23.893 10.24 30.72 0l47.787-47.787c10.24-10.24 10.24-23.893 0-30.72l-122.88-122.88c-6.827-6.827-20.48-6.827-30.72 0zM491.52 704l-6.827 6.827-34.133-34.133-37.547 34.133-6.827-6.827 37.547-34.133-37.547-37.547 6.827-6.827 37.547 37.547 34.133-37.547 6.827 6.827-34.133 37.547zM628.053 843.947l-6.827 6.827-47.787-44.373-47.787 44.373-6.827-6.827 44.373-47.787-44.373-47.787 6.827-10.24 47.787 47.787 47.787-47.787 6.827 10.24-44.373 47.787zM798.72 430.933l-6.827 10.24-40.96-37.547-37.547 37.547-6.827-10.24 37.547-37.547-37.547-37.547 6.827-6.827 37.547 37.547 40.96-37.547 6.827 6.827-37.547 37.547z" />
<glyph unicode="&#xe901;" glyph-name="crop" d="M935.253 246.613h-68.267v436.907h-638.293v88.747c0 13.653-10.24 23.893-23.893 23.893s-20.48-13.653-20.48-23.893v-88.747h-75.093c-13.653 0-23.893-10.24-23.893-23.893s10.24-23.893 23.893-23.893h78.507v-433.493h631.467v-78.507c0-13.653 10.24-23.893 23.893-23.893s23.893 10.24 23.893 23.893v78.507h68.267c13.653 0 23.893 10.24 23.893 23.893s-13.653 20.48-23.893 20.48zM228.693 246.613v389.12h590.507v-389.12h-590.507z" />
<glyph unicode="&#xe902;" glyph-name="rotation-left" d="M505.173 451.413h-409.6v406.187l184.32-184.32c75.093 71.68 157.013 102.4 259.413 102.4 194.56 0 334.507-109.227 389.12-303.787l-37.547-10.24c-47.787 177.493-170.667 273.067-348.16 273.067-92.16 0-160.427-27.307-232.107-92.16l194.56-191.147zM354.987 110.080l23.893 34.133c-10.24 6.827-20.48 17.067-30.72 23.893l-27.307-27.307c10.24-10.24 23.893-20.48 34.133-30.72zM430.080 72.533l13.653 37.547c23.893-10.24 47.787-13.653 71.68-17.067l-3.413-40.96c-10.24 0-20.48 3.413-30.72 6.827-20.48 3.413-34.133 6.827-51.2 13.653zM590.507 89.6c23.893 3.413 47.787 6.827 71.68 13.653l13.653-37.547c-27.307-10.24-54.613-13.653-81.92-17.067l-3.413 40.96zM733.867 133.973c20.48 13.653 40.96 27.307 61.44 44.373l27.307-30.72c-20.48-20.48-44.373-34.133-68.267-51.2l-20.48 37.547zM839.68 236.373c13.653 20.48 27.307 44.373 34.133 64.853l37.547-13.653c-10.24-27.307-23.893-51.2-37.547-75.093l-34.133 23.893zM894.293 376.32l40.96-3.413c3.413 17.067 3.413 30.72 3.413 47.787h-40.96c0-17.067 0-30.72-3.413-44.373z" />
<glyph unicode="&#xe903;" glyph-name="mirror-vertical" d="M931.84 448l-133.12-146.773-136.533-146.773v587.093l136.533-146.773zM334.507 669.867v-443.733l-85.333 95.573-119.467 126.293 119.467 129.707 85.333 92.16zM361.813 741.547l-273.067-293.547 273.067-293.547v587.093zM498.347 949.76h27.307v-54.613h-27.307v54.613zM525.653 99.84h-27.307v98.987h27.307v-98.987zM525.653 297.813h-27.307v98.987h27.307v-98.987zM525.653 499.2h-27.307v98.987h27.307v-98.987zM525.653 697.173h-27.307v98.987h27.307v-98.987zM498.347 0.853h27.307v-54.613h-27.307v54.613z" />
<glyph unicode="&#xe904;" glyph-name="filter" d="M522.24 383.147c-136.533 0-249.173 112.64-249.173 249.173s112.64 249.173 249.173 249.173 249.173-112.64 249.173-249.173c0-139.947-112.64-249.173-249.173-249.173zM522.24 847.36c-119.467 0-215.040-95.573-215.040-215.040s95.573-215.040 215.040-215.040c119.467 0 215.040 95.573 215.040 215.040s-95.573 215.040-215.040 215.040zM983.040 263.68c0-137.615-111.559-249.173-249.173-249.173s-249.173 111.559-249.173 249.173c0 137.615 111.559 249.173 249.173 249.173s249.173-111.559 249.173-249.173zM290.133 526.507c-136.533 0-249.173-112.64-249.173-249.173s112.64-249.173 249.173-249.173c136.533 0 249.173 112.64 249.173 249.173s-109.227 249.173-249.173 249.173zM481.28 379.733l-85.333 85.333c34.133-20.48 64.853-47.787 85.333-85.333zM331.093 488.96l170.667-170.667c3.413-13.653 3.413-27.307 3.413-40.96 0-3.413 0-6.827 0-10.24l-225.28 225.28c3.413 0 6.827 0 10.24 0 13.653 0 27.307 0 40.96-3.413zM501.76 229.547c-3.413-13.653-6.827-23.893-10.24-37.547l-283.307 283.307c10.24 3.413 23.893 10.24 37.547 10.24l256-256zM129.707 420.693l303.787-303.787c-10.24-6.827-17.067-13.653-27.307-20.48l-296.96 296.96c6.827 10.24 13.653 17.067 20.48 27.307zM382.293 79.36c-10.24-6.827-23.893-10.24-34.133-13.653l-262.827 262.827c3.413 13.653 6.827 23.893 13.653 34.133l283.307-283.307zM95.573 185.173l105.813-105.813c-47.787 23.893-85.333 61.44-105.813 105.813zM259.413 62.293l-180.907 180.907c0 10.24-3.413 20.48-3.413 30.72 0 6.827 0 13.653 0 17.067l232.107-232.107c-6.827 0-13.653 0-17.067 0-10.24 0-20.48 3.413-30.72 3.413zM453.973 137.387l-303.787 303.787c10.24 6.827 20.48 13.653 30.72 20.48l296.96-296.96c-6.827-10.24-13.653-20.48-23.893-27.307z" />
<glyph unicode="&#xe905;" glyph-name="arrows-back" d="M54.613 502.613c-6.827-3.413-10.24-13.653-10.24-20.48s3.413-13.653 10.24-20.48l413.013-341.333c6.827-6.827 17.067-6.827 27.307-3.413s13.653 13.653 13.653 23.893v177.493c167.253 0 279.893-13.653 419.84-259.413 3.413-6.827 13.653-13.653 23.893-13.653 3.413 0 3.413 0 6.827 0 10.24 3.413 20.48 13.653 20.48 23.893v20.48c0 88.747 0 225.28-61.44 337.92-71.68 133.12-208.213 201.387-409.6 208.213v184.32c0 10.24-6.827 20.48-13.653 23.893-10.24 3.413-20.48 3.413-27.307-3.413l-413.013-337.92z" />
<glyph unicode="&#xe906;" glyph-name="arrows-forward" d="M969.387 492.373l-413.013 337.92c-6.827 6.827-17.067 6.827-27.307 3.413s-13.653-13.653-13.653-23.893v-177.493c-201.387-6.827-337.92-78.507-409.6-208.213-61.44-112.64-61.44-249.173-61.44-337.92v-20.48c0-10.24 6.827-20.48 20.48-23.893 3.413-3.413 3.413-3.413 6.827-3.413 10.24 0 17.067 3.413 23.893 13.653 139.947 245.76 252.587 256 419.84 259.413v-177.493c0-10.24 6.827-20.48 13.653-23.893 10.24-3.413 20.48-3.413 27.307 3.413l413.013 341.333c6.827 3.413 10.24 13.653 10.24 20.48 0 3.413-3.413 10.24-10.24 17.067v0z" />
<glyph unicode="&#xe907;" glyph-name="resize" d="M849.92 116.907h-23.893v-44.373h64.853v64.853h-40.96zM651.947 116.907h88.747v-40.96h-88.747v40.96zM474.453 116.907h88.747v-40.96h-88.747v40.96zM143.36 669.867h40.96v-88.747h-40.96v88.747zM143.36 492.373h40.96v-88.747h-40.96v88.747zM187.733 779.093h20.48v44.373h-64.853v-64.853h44.373zM296.96 823.467h88.747v-40.96h-88.747v40.96zM651.947 823.467h88.747v-40.96h-88.747v40.96zM474.453 823.467h88.747v-40.96h-88.747v40.96zM826.027 823.467v-44.373h23.893v-20.48h40.96v64.853zM849.92 492.373h40.96v-88.747h-40.96v88.747zM849.92 314.88h40.96v-88.747h-40.96v88.747zM849.92 669.867h40.96v-88.747h-40.96v88.747zM795.307 724.48h-163.84l68.267-68.267-242.347-238.933 27.307-27.307 242.347 238.933 68.267-68.267v81.92zM143.36 314.88v0-242.347h64.853v3.413h88.747v-3.413h88.747v3.413h64.853v303.787h-307.2z" />
<glyph unicode="&#xe908;" glyph-name="rotation-right" d="M938.667 430.933h-436.907l204.8 204.8c-64.853 61.44-133.12 85.333-218.453 85.333-174.080 0-293.547-95.573-341.333-269.653l-54.613 13.653c54.613 197.973 197.973 310.613 395.947 310.613 102.4 0 180.907-30.72 259.413-98.987l191.147 191.147v-436.907zM672.427 99.84l-23.893 34.133c10.24 6.827 20.48 17.067 30.72 23.893l27.307-30.72c-10.24-6.827-20.48-17.067-34.133-27.307zM549.547 48.64c-10.24-3.413-20.48-3.413-30.72-6.827l-6.827 40.96c23.893 3.413 47.787 10.24 71.68 17.067l13.653-37.547c-17.067-6.827-30.72-10.24-47.787-13.653zM433.493 38.4c-27.307 3.413-54.613 6.827-81.92 17.067l13.653 37.547c23.893-6.827 47.787-13.653 71.68-13.653l-3.413-40.96zM276.48 89.6c-23.893 13.653-47.787 30.72-68.267 51.2l27.307 30.72c17.067-17.067 37.547-30.72 61.44-44.373l-20.48-37.547zM153.6 202.24c-17.067 23.893-30.72 51.2-37.547 75.093l37.547 13.653c10.24-23.893 20.48-44.373 34.133-64.853l-34.133-23.893zM133.12 366.080l-40.96-3.413c-3.413 17.067-3.413 30.72-3.413 47.787h40.96c0-17.067 3.413-30.72 3.413-44.373z" />
<glyph unicode="&#xe909;" glyph-name="mirrot-horizontal" d="M512 28.16l-146.773 133.12-146.773 136.533h587.093l-146.773-136.533zM512 830.293l129.707-119.467 95.573-85.333h-447.147l95.573 85.333 126.293 119.467zM512 867.84l-293.547-273.067h587.093l-293.547 273.067zM959.147 461.653h54.613v-27.307h-54.613v27.307zM860.16 434.347h-98.987v27.307h98.987v-27.307zM662.187 434.347h-98.987v27.307h98.987v-27.307zM460.8 434.347h-98.987v27.307h98.987v-27.307zM262.827 434.347h-98.987v27.307h98.987v-27.307zM10.24 461.653h54.613v-27.307h-54.613v27.307z" />
<glyph unicode="&#xe90a;" glyph-name="adjust" d="M34.133 676.693h75.093c10.24-44.373 51.2-78.507 98.987-78.507s88.747 34.133 98.987 78.507h682.667c13.653 0 23.893 10.24 23.893 23.893-3.413 10.24-13.653 20.48-23.893 20.48h-686.080c-10.24 44.373-47.787 78.507-95.573 78.507s-88.747-34.133-98.987-78.507h-75.093c-13.653 0-23.893-10.24-23.893-23.893 0-10.24 10.24-20.48 23.893-20.48zM989.867 499.2h-436.907c-10.24 44.373-51.2 78.507-98.987 78.507s-88.747-34.133-98.987-78.507h-320.853c-13.653 0-23.893-10.24-23.893-23.893s10.24-23.893 23.893-23.893h324.267c10.24-44.373 51.2-78.507 98.987-78.507s88.747 34.133 98.987 78.507h433.493c13.653 0 23.893 10.24 23.893 23.893s-13.653 23.893-23.893 23.893zM989.867 239.787h-631.467c-10.24 44.373-51.2 78.507-98.987 78.507s-88.747-34.133-98.987-78.507h-126.293c-13.653 0-23.893-10.24-23.893-23.893s10.24-23.893 23.893-23.893h129.707c10.24-44.373 51.2-78.507 98.987-78.507s88.747 34.133 98.987 78.507h628.053c13.653 0 23.893 10.24 23.893 23.893s-13.653 23.893-23.893 23.893z" />
<glyph unicode="&#xe90b;" glyph-name="orientation" d="M781.653 359.253v-3.413c-17.067-136.533-136.533-238.933-273.067-238.933-153.6 0-276.48 122.88-276.48 276.48 0 146.773 116.053 266.24 262.827 276.48v-119.467l136.533 136.533-136.533 136.533v-116.053c-170.667-6.827-303.787-146.773-303.787-317.44 0-174.080 143.36-317.44 317.44-317.44 160.427 0 296.96 119.467 314.027 279.893v6.827h-40.96z" />
<glyph unicode="&#xe90c;" glyph-name="cross" d="M754.347 649.387l-40.96 40.96-201.387-201.387-201.387 201.387-40.96-40.96 201.387-201.387-201.387-201.387 40.96-40.96 201.387 201.387 201.387-201.387 40.96 40.96-201.387 201.387z" />
<glyph unicode="&#xe90d;" glyph-name="point-orientation" d="M877.227 448l-136.533-146.773-133.12-146.773v587.093l133.12-146.773zM146.773 448l136.533-146.773 133.12-146.773v587.093l-133.12-146.773z" />
<glyph unicode="&#xe90e;" glyph-name="link" d="M556.373 465.067c-10.24 0-17.067-6.827-17.067-17.067 0-40.96-34.133-75.093-75.093-75.093h-221.867c-40.96 0-75.093 34.133-75.093 75.093v34.133c0 40.96 34.133 75.093 75.093 75.093h221.867c10.24 0 17.067 6.827 17.067 17.067s-6.827 17.067-17.067 17.067h-221.867c-30.72 0-58.027-10.24-78.507-34.133-20.48-20.48-34.133-51.2-34.133-78.507v-34.133c0-30.72 13.653-58.027 34.133-78.507s47.787-34.133 78.507-34.133h221.867c61.44 0 112.64 51.2 112.64 112.64-3.413 13.653-10.24 20.48-20.48 20.48zM894.293 417.28v34.133c0 61.44-51.2 112.64-112.64 112.64h-221.867c-61.44 0-112.64-51.2-112.64-112.64 0-10.24 6.827-17.067 17.067-17.067s17.067 6.827 17.067 17.067c0 40.96 34.133 75.093 75.093 75.093h221.867c40.96 0 75.093-34.133 75.093-75.093v-34.133c0-40.96-34.133-75.093-75.093-75.093h-221.867c-10.24 0-17.067-6.827-17.067-17.067 0-3.413 3.413-10.24 6.827-13.653s6.827-6.827 13.653-6.827h221.867c30.72 0 58.027 10.24 78.507 34.133 23.893 20.48 34.133 47.787 34.133 78.507z" />
<glyph unicode="&#xe90f;" glyph-name="without-link" d="M894.293 448c0 61.44-51.2 112.64-112.64 112.64h-160.427l266.24 266.24-23.893 23.893-286.72-286.72h-13.653c-61.44 0-112.64-51.2-112.64-112.64 0-3.413 0-6.827 3.413-10.24l-68.267-68.267h-143.36c-40.96 0-75.093 34.133-75.093 75.093v34.133c0 40.96 34.133 75.093 75.093 75.093h221.867c10.24 0 17.067 6.827 17.067 17.067s-6.827 17.067-17.067 17.067h-221.867c-30.72 0-58.027-10.24-78.507-34.133-20.48-20.48-34.133-51.2-34.133-78.507v-34.133c0-30.72 13.653-58.027 34.133-78.507s47.787-34.133 78.507-34.133h105.813l-218.453-218.453 23.893-23.893 242.347 242.347h64.853c61.44 0 112.64 51.2 112.64 112.64 0 10.24-6.827 17.067-17.067 17.067s-17.067-6.827-17.067-17.067c0-40.96-34.133-75.093-75.093-75.093h-27.307l153.6 153.6h194.56c40.96 0 75.093-34.133 75.093-75.093v-34.133c0-40.96-34.133-75.093-75.093-75.093h-221.867c-10.24 0-17.067-6.827-17.067-17.067 0-3.413 3.413-10.24 6.827-13.653s6.827-6.827 13.653-6.827h221.867c30.72 0 58.027 10.24 78.507 34.133s34.133 51.2 34.133 78.507l-6.827 34.133zM532.48 519.68l-40.96-40.96c10.24 17.067 23.893 30.72 40.96 40.96z" />
<glyph unicode="&#xe910;" glyph-name="minus" d="M197.973 478.72h628.053v-58.027h-628.053v58.027z" />
<glyph unicode="&#xe911;" glyph-name="plus" d="M539.307 762.027h-54.613v-286.72h-286.72v-54.613h286.72v-286.72h54.613v286.72h286.72v54.613h-286.72z" />
<glyph unicode="&#xe912;" glyph-name="reset" d="M286.72 849.408v88.064l-217.088-131.072 217.088-131.072v90.112c10.24 0 243.712 0 251.904-2.048 182.272-14.336 325.632-165.888 325.632-352.256 0-194.56-157.696-352.256-352.256-352.256s-352.256 159.744-352.256 354.304v10.24h-81.92v-10.24c0-239.616 194.56-436.224 436.224-436.224s436.224 194.56 436.224 436.224c0 229.376-178.176 417.792-405.504 434.176-12.288 2.048-247.808 2.048-258.048 2.048zM677.888 544.256l-45.056 45.056-120.832-120.832-120.832 120.832-45.056-45.056 120.832-120.832-120.832-122.88 45.056-45.056 120.832 120.832 120.832-120.832 45.056 45.056-120.832 122.88z" />
<glyph unicode="&#xe913;" glyph-name="rotate-right" d="M75.776 388.608c0-239.616 194.56-436.224 436.224-436.224 24.576 0 49.152 2.048 73.728 6.144l-10.24 61.44c-20.48-4.096-43.008-6.144-63.488-6.144-204.8 0-372.736 167.936-372.736 372.736 0 184.32 135.168 337.92 311.296 366.592v-118.784l186.368 155.648-186.368 157.696v-129.024c-210.944-30.72-374.784-210.944-374.784-430.080zM741.376 683.52c45.056-34.816 81.92-81.92 106.496-133.12l55.296 26.624c-28.672 59.392-71.68 114.688-124.928 155.648l-36.864-49.152zM880.64 439.808c2.048-16.384 4.096-34.816 4.096-51.2 0-40.96-6.144-79.872-18.432-118.784l59.392-20.48c14.336 45.056 22.528 90.112 22.528 137.216 0 20.48-2.048 40.96-4.096 61.44l-63.488-8.192zM813.056 169.472c-34.816-47.104-77.824-83.968-129.024-110.592l28.672-55.296c59.392 30.72 110.592 75.776 151.552 129.024l-51.2 36.864z" />
<glyph unicode="&#xe914;" glyph-name="flip-vertically" d="M456.704 812.544l-409.6-710.656c-8.192-14.336 2.048-30.72 18.432-30.72h409.6c12.288 0 20.48 8.192 20.48 20.48v710.656c0 22.528-26.624 28.672-38.912 10.24zM548.864 802.304v0c0 0 0 0 0 0zM548.864 802.304v0l409.6-710.656h-409.6v710.656c0 0 0 0 0 0zM548.864 822.784c-10.24 0-20.48-8.192-20.48-20.48v-710.656c0-12.288 8.192-20.48 20.48-20.48h409.6c16.384 0 26.624 16.384 18.432 30.72l-409.6 710.656c-4.096 8.192-12.288 10.24-18.432 10.24v0z" />
<glyph unicode="&#xe915;" glyph-name="rotate-left" d="M573.44 818.688v129.024l-186.368-155.648 186.368-155.648v120.832c176.128-30.72 311.296-182.272 311.296-366.592 0-204.8-167.936-372.736-372.736-372.736-20.48 0-43.008 2.048-63.488 6.144l-10.24-61.44c24.576-4.096 49.152-6.144 73.728-6.144 239.616 0 436.224 194.56 436.224 436.224 0 215.040-163.84 395.264-374.784 425.984zM282.624 683.52l-38.912 49.152c-53.248-40.96-96.256-94.208-124.928-155.648l57.344-26.624c24.576 51.2 61.44 96.256 106.496 133.12v0zM143.36 439.808l-61.44 8.192c-2.048-20.48-4.096-40.96-4.096-61.44 0-47.104 8.192-94.208 22.528-137.216l59.392 20.48c-12.288 38.912-18.432 77.824-18.432 118.784-2.048 18.432-2.048 34.816 2.048 51.2v0zM210.944 169.472l-51.2-36.864c38.912-53.248 92.16-98.304 151.552-129.024l28.672 55.296c-51.2 24.576-96.256 63.488-129.024 110.592v0z" />
<glyph unicode="&#xe916;" glyph-name="flip-horizontally" d="M876.544 503.296l-708.608 409.6c-14.336 8.192-30.72-2.048-30.72-18.432v-409.6c0-12.288 8.192-20.48 20.48-20.48h710.656c20.48 0 26.624 26.624 8.192 38.912zM866.304 411.136l-710.656-409.6v409.6h710.656zM866.304 431.616h-708.608c-12.288 0-20.48-8.192-20.48-20.48v-409.6c0-12.288 10.24-20.48 20.48-20.48 4.096 0 6.144 0 10.24 2.048l710.656 409.6c16.384 12.288 10.24 38.912-12.288 38.912v0z" />
<glyph unicode="&#xe917;" glyph-name="attention" d="M876.544 9.728h-729.088c-45.056 0-83.968 22.528-106.496 61.44s-22.528 83.968 0 122.88l364.544 630.784c22.528 38.912 61.44 61.44 106.496 61.44s83.968-22.528 106.496-61.44l364.544-630.784c22.528-38.912 22.528-83.968 0-122.88s-61.44-61.44-106.496-61.44zM512 851.456c-30.72 0-59.392-16.384-75.776-43.008l-364.544-632.832c-16.384-26.624-16.384-59.392 0-88.064 16.384-26.624 45.056-43.008 75.776-43.008h729.088c30.72 0 59.392 16.384 75.776 43.008s16.384 59.392 0 88.064l-364.544 632.832c-16.384 26.624-45.056 43.008-75.776 43.008zM475.136 173.568c0 10.24 2.048 18.432 8.192 24.576s14.336 10.24 26.624 10.24c12.288 0 20.48-4.096 26.624-10.24s8.192-14.336 8.192-24.576c0-10.24-4.096-18.432-8.192-24.576-6.144-6.144-14.336-10.24-26.624-10.24s-20.48 4.096-26.624 10.24c-4.096 6.144-8.192 14.336-8.192 24.576zM536.576 278.016h-55.296l-4.096 342.016h63.488l-4.096-342.016z" />
<glyph unicode="&#xe918;" glyph-name="watermark" d="M974.848 443.904c0 22.528 8.192 47.104 14.336 73.728 12.288 43.008 24.576 86.016 8.192 129.024-18.432 43.008-59.392 65.536-98.304 88.064-22.528 12.288-45.056 24.576-59.392 38.912s-26.624 36.864-38.912 59.392c-22.528 38.912-45.056 81.92-88.064 98.304-40.96 16.384-86.016 4.096-129.024-8.192-24.576-8.192-51.2-14.336-73.728-14.336s-47.104 8.192-73.728 14.336c-43.008 12.288-86.016 24.576-129.024 8.192-43.008-18.432-65.536-59.392-88.064-98.304-8.192-24.576-20.48-45.056-34.816-61.44-14.336-14.336-36.864-26.624-59.392-38.912-38.912-22.528-81.92-45.056-98.304-88.064-16.384-40.96-4.096-86.016 8.192-129.024 8.192-24.576 14.336-51.2 14.336-73.728s-8.192-47.104-14.336-73.728c-12.288-38.912-26.624-83.968-8.192-124.928 18.432-43.008 59.392-65.536 98.304-88.064 22.528-12.288 45.056-24.576 59.392-38.912s26.624-36.864 38.912-59.392c22.528-38.912 45.056-81.92 88.064-98.304 14.336-6.144 28.672-8.192 43.008-8.192 28.672 0 57.344 8.192 83.968 16.384 24.576 8.192 51.2 14.336 73.728 14.336s47.104-8.192 73.728-14.336c26.624-8.192 55.296-16.384 83.968-16.384 16.384 0 30.72 2.048 43.008 8.192 43.008 18.432 65.536 59.392 88.064 98.304 12.288 22.528 24.576 45.056 38.912 59.392s36.864 26.624 59.392 38.912c38.912 22.528 81.92 45.056 98.304 88.064 16.384 40.96 4.096 86.016-8.192 129.024-6.144 24.576-14.336 51.2-14.336 71.68zM950.272 263.68c-10.24-26.624-43.008-43.008-75.776-61.44-24.576-14.336-51.2-28.672-71.68-47.104-20.48-20.48-34.816-45.056-47.104-71.68-18.432-32.768-34.816-65.536-61.44-75.776-24.576-10.24-57.344 0-94.208 10.24-28.672 8.192-57.344 16.384-88.064 16.384-28.672 0-59.392-8.192-88.064-16.384-34.816-10.24-69.632-20.48-94.208-10.24-26.624 10.24-43.008 43.008-61.44 75.776-14.336 24.576-28.672 51.2-47.104 71.68-20.48 20.48-45.056 34.816-71.68 47.104-32.768 18.432-65.536 34.816-75.776 61.44-10.24 24.576 0 57.344 10.24 94.208 8.192 28.672 16.384 57.344 16.384 88.064 0 28.672-8.192 59.392-16.384 88.064-10.24 34.816-20.48 69.632-10.24 94.208 10.24 26.624 43.008 43.008 75.776 61.44 24.576 14.336 51.2 28.672 71.68 47.104 20.48 20.48 34.816 45.056 47.104 71.68 18.432 32.768 34.816 65.536 61.44 75.776 6.144 2.048 14.336 4.096 24.576 4.096 20.48 0 45.056-6.144 69.632-14.336 28.672-8.192 57.344-16.384 88.064-16.384 28.672 0 59.392 8.192 88.064 16.384 34.816 10.24 69.632 20.48 94.208 10.24 26.624-10.24 43.008-43.008 61.44-75.776 14.336-24.576 28.672-51.2 47.104-71.68 20.48-20.48 45.056-34.816 71.68-47.104 32.768-18.432 65.536-34.816 75.776-61.44 10.24-24.576 0-57.344-10.24-94.208-8.192-28.672-16.384-57.344-16.384-88.064 0-28.672 8.192-59.392 16.384-88.064v0c10.24-36.864 20.48-69.632 10.24-94.208zM575.488 294.4h55.296v301.056h-51.2v-210.944l-131.072 210.944h-55.296v-301.056h51.2v210.944zM669.696 206.336c-47.104-30.72-102.4-47.104-157.696-47.104-157.696 0-286.72 129.024-286.72 286.72 0 57.344 16.384 110.592 47.104 157.696l6.144 8.192-43.008 28.672-6.144-8.192c-36.864-55.296-57.344-120.832-57.344-186.368 0-186.368 151.552-337.92 337.92-337.92 67.584 0 131.072 20.48 186.368 57.344l8.192 6.144-28.672 43.008-6.144-8.192zM512 783.872c-67.584 0-131.072-20.48-186.368-57.344l-8.192-6.144 28.672-43.008 8.192 6.144c47.104 30.72 102.4 47.104 157.696 47.104 157.696 0 286.72-129.024 286.72-286.72 0-57.344-16.384-110.592-47.104-157.696l-6.144-8.192 43.008-28.672 6.144 8.192c36.864 55.296 57.344 120.832 57.344 186.368-2.048 188.416-153.6 339.968-339.968 339.968z" />
<glyph unicode="&#xe919;" glyph-name="focus-point" d="M972.8 478.72h-53.248c-14.336 200.704-176.128 362.496-376.832 376.832v53.248c0 16.384-14.336 30.72-30.72 30.72s-30.72-14.336-30.72-30.72v-53.248c-200.704-14.336-362.496-176.128-376.832-376.832h-53.248c-16.384 0-30.72-14.336-30.72-30.72s14.336-30.72 30.72-30.72h53.248c14.336-200.704 176.128-362.496 376.832-376.832v-53.248c0-16.384 14.336-30.72 30.72-30.72s30.72 14.336 30.72 30.72v53.248c200.704 14.336 362.496 176.128 376.832 376.832h53.248c16.384 0 30.72 14.336 30.72 30.72s-14.336 30.72-30.72 30.72zM542.72 101.888v28.672c0 16.384-14.336 30.72-30.72 30.72s-30.72-14.336-30.72-30.72v-28.672c-167.936 14.336-301.056 147.456-315.392 315.392h28.672c16.384 0 30.72 14.336 30.72 30.72s-14.336 30.72-30.72 30.72h-28.672c14.336 167.936 147.456 301.056 315.392 315.392v-28.672c0-16.384 14.336-30.72 30.72-30.72s30.72 14.336 30.72 30.72v28.672c167.936-14.336 301.056-147.456 315.392-315.392h-28.672c-16.384 0-30.72-14.336-30.72-30.72s14.336-30.72 30.72-30.72h28.672c-14.336-167.936-147.456-301.056-315.392-315.392zM512 570.88c-67.584 0-122.88-55.296-122.88-122.88s55.296-122.88 122.88-122.88 122.88 55.296 122.88 122.88-55.296 122.88-122.88 122.88zM512 386.56c-34.816 0-61.44 26.624-61.44 61.44s26.624 61.44 61.44 61.44 61.44-26.624 61.44-61.44-26.624-61.44-61.44-61.44z" />
</font>
</defs>
</svg>
